<?xml version="1.0" encoding="UTF-8"?>
<!DOCTYPE svg PUBLIC "-//W3C//DTD SVG 1.1//EN" "http://www.w3.org/Graphics/SVG/1.1/DTD/svg11.dtd">
<svg xmlns="http://www.w3.org/2000/svg" version="1.1" width="512px" height="512px" style="shape-rendering:geometricPrecision; text-rendering:geometricPrecision; image-rendering:optimizeQuality; fill-rule:evenodd; clip-rule:evenodd" xmlns:xlink="http://www.w3.org/1999/xlink">
<g><path style="opacity:0.997" fill="#334c8c" d="M 232.5,-0.5 C 247.833,-0.5 263.167,-0.5 278.5,-0.5C 368.144,10.3879 435.644,54.7213 481,132.5C 497.695,163.971 507.861,197.304 511.5,232.5C 511.5,247.833 511.5,263.167 511.5,278.5C 500.612,368.144 456.279,435.644 378.5,481C 347.029,497.695 313.696,507.861 278.5,511.5C 263.167,511.5 247.833,511.5 232.5,511.5C 142.856,500.612 75.3562,456.279 30,378.5C 13.3053,347.029 3.1386,313.696 -0.5,278.5C -0.5,263.167 -0.5,247.833 -0.5,232.5C 10.3875,142.857 54.7208,75.3573 132.5,30C 163.971,13.3053 197.304,3.1386 232.5,-0.5 Z"/></g>
<g><path style="opacity:1" fill="#fdfdfe" d="M 225.5,379.5 C 225.5,343.833 225.5,308.167 225.5,272.5C 215.5,272.5 205.5,272.5 195.5,272.5C 193.248,272.084 191.748,270.751 191,268.5C 190.333,254.833 190.333,241.167 191,227.5C 192.167,226.333 193.333,225.167 194.5,224C 204.828,223.5 215.161,223.334 225.5,223.5C 225.119,205.799 225.619,188.132 227,170.5C 232.814,146.354 247.981,132.187 272.5,128C 286.5,127.333 300.5,127.333 314.5,128C 315.931,128.465 317.097,129.299 318,130.5C 319.625,142.404 319.958,154.404 319,166.5C 317.833,168.333 316.333,169.833 314.5,171C 304.833,171.333 295.167,171.667 285.5,172C 278.667,173.5 274.5,177.667 273,184.5C 272.5,197.496 272.333,210.496 272.5,223.5C 286.837,223.333 301.171,223.5 315.5,224C 318.759,225.25 320.425,227.583 320.5,231C 319.06,243.173 317.56,255.34 316,267.5C 315.417,269.002 314.584,270.335 313.5,271.5C 299.883,272.482 286.216,272.815 272.5,272.5C 272.667,308.502 272.5,344.502 272,380.5C 271.5,381.667 270.667,382.5 269.5,383C 255.5,383.667 241.5,383.667 227.5,383C 226.177,382.184 225.511,381.017 225.5,379.5 Z"/></g>
<g><path style="opacity:1" fill="#6c7dac" d="M 195.5,272.5 C 205.5,272.5 215.5,272.5 225.5,272.5C 225.5,308.167 225.5,343.833 225.5,379.5C 224.502,344.337 224.168,309.004 224.5,273.5C 214.652,273.827 204.986,273.494 195.5,272.5 Z"/></g>
</svg>
