<?xml version="1.0" encoding="UTF-8"?>
<!DOCTYPE svg PUBLIC "-//W3C//DTD SVG 1.1//EN" "http://www.w3.org/Graphics/SVG/1.1/DTD/svg11.dtd">
<svg xmlns="http://www.w3.org/2000/svg" version="1.1" width="512px" height="512px" style="shape-rendering:geometricPrecision; text-rendering:geometricPrecision; image-rendering:optimizeQuality; fill-rule:evenodd; clip-rule:evenodd" xmlns:xlink="http://www.w3.org/1999/xlink">
<g><path style="opacity:0.996" fill="#7f3bb8" d="M 95.5,-0.5 C 168.167,-0.5 240.833,-0.5 313.5,-0.5C 313.5,42.1667 313.5,84.8333 313.5,127.5C 356.337,127.832 399.003,127.499 441.5,126.5C 442.666,244.333 442.833,362.333 442,480.5C 439.395,496.264 430.562,506.597 415.5,511.5C 308.833,511.5 202.167,511.5 95.5,511.5C 80.4381,506.597 71.6047,496.264 69,480.5C 68.3333,330.5 68.3333,180.5 69,30.5C 71.6047,14.7361 80.4381,4.40272 95.5,-0.5 Z"/></g>
<g><path style="opacity:1" fill="#5d2789" d="M 313.5,-0.5 C 314.167,-0.5 314.833,-0.5 315.5,-0.5C 357.5,41.8333 399.5,84.1667 441.5,126.5C 399.003,127.499 356.337,127.832 313.5,127.5C 313.5,84.8333 313.5,42.1667 313.5,-0.5 Z"/></g>
<g><path style="opacity:1" fill="#fcfbfd" d="M 160.5,197.5 C 174.013,196.845 180.179,203.178 179,216.5C 173.317,227.006 165.484,229.006 155.5,222.5C 147.817,212.259 149.484,203.926 160.5,197.5 Z"/></g>
<g><path style="opacity:1" fill="#ebe0f4" d="M 209.5,197.5 C 209.5,206.833 209.5,216.167 209.5,225.5C 259.5,225.5 309.5,225.5 359.5,225.5C 359.5,216.167 359.5,206.833 359.5,197.5C 360.494,206.986 360.827,216.652 360.5,226.5C 309.833,226.5 259.167,226.5 208.5,226.5C 208.173,216.652 208.506,206.986 209.5,197.5 Z"/></g>
<g><path style="opacity:1" fill="#fefffe" d="M 209.5,197.5 C 259.5,197.5 309.5,197.5 359.5,197.5C 359.5,206.833 359.5,216.167 359.5,225.5C 309.5,225.5 259.5,225.5 209.5,225.5C 209.5,216.167 209.5,206.833 209.5,197.5 Z"/></g>
<g><path style="opacity:1" fill="#fcfbfd" d="M 159.5,267.5 C 175.445,266.104 181.612,273.104 178,288.5C 172.818,296.449 165.985,298.282 157.5,294C 147.799,284.374 148.466,275.54 159.5,267.5 Z"/></g>
<g><path style="opacity:1" fill="#ba95d8" d="M 360.5,267.5 C 360.167,267.5 359.833,267.5 359.5,267.5C 309.5,267.5 259.5,267.5 209.5,267.5C 209.5,276.833 209.5,286.167 209.5,295.5C 209.5,295.833 209.5,296.167 209.5,296.5C 208.506,286.681 208.173,276.681 208.5,266.5C 259.336,266.168 310.003,266.501 360.5,267.5 Z"/></g>
<g><path style="opacity:1" fill="#fefffe" d="M 359.5,267.5 C 359.5,276.833 359.5,286.167 359.5,295.5C 309.5,295.5 259.5,295.5 209.5,295.5C 209.5,286.167 209.5,276.833 209.5,267.5C 259.5,267.5 309.5,267.5 359.5,267.5 Z"/></g>
<g><path style="opacity:1" fill="#dbc9eb" d="M 359.5,267.5 C 359.833,267.5 360.167,267.5 360.5,267.5C 360.5,277.167 360.5,286.833 360.5,296.5C 310.167,296.5 259.833,296.5 209.5,296.5C 209.5,296.167 209.5,295.833 209.5,295.5C 259.5,295.5 309.5,295.5 359.5,295.5C 359.5,286.167 359.5,276.833 359.5,267.5 Z"/></g>
<g><path style="opacity:1" fill="#fcfbfd" d="M 159.5,337.5 C 175.516,336.01 181.683,343.01 178,358.5C 173.532,365.085 167.365,367.252 159.5,365C 147.54,355.8 147.54,346.633 159.5,337.5 Z"/></g>
<g><path style="opacity:1" fill="#c6a9df" d="M 208.5,336.5 C 259.167,336.5 309.833,336.5 360.5,336.5C 360.5,346.5 360.5,356.5 360.5,366.5C 309.833,366.5 259.167,366.5 208.5,366.5C 208.5,356.5 208.5,346.5 208.5,336.5 Z"/></g>
<g><path style="opacity:1" fill="#fefffe" d="M 209.5,337.5 C 259.5,337.5 309.5,337.5 359.5,337.5C 359.5,346.833 359.5,356.167 359.5,365.5C 309.5,365.5 259.5,365.5 209.5,365.5C 209.5,356.167 209.5,346.833 209.5,337.5 Z"/></g>
</svg>
