<?xml version="1.0" encoding="UTF-8"?>
<!DOCTYPE svg PUBLIC "-//W3C//DTD SVG 1.1//EN" "http://www.w3.org/Graphics/SVG/1.1/DTD/svg11.dtd">
<svg xmlns="http://www.w3.org/2000/svg" version="1.1" width="512px" height="512px" style="shape-rendering:geometricPrecision; text-rendering:geometricPrecision; image-rendering:optimizeQuality; fill-rule:evenodd; clip-rule:evenodd" xmlns:xlink="http://www.w3.org/1999/xlink">
<g><path style="opacity:0.998" fill="#ab08c5" d="M 239.5,30.5 C 244.833,30.5 250.167,30.5 255.5,30.5C 330.167,105.833 405.167,180.833 480.5,255.5C 480.5,260.5 480.5,265.5 480.5,270.5C 399.549,191.216 319.215,111.216 239.5,30.5 Z"/></g>
<g><path style="opacity:0.999" fill="#a706c8" d="M 255.5,30.5 C 258.833,30.5 262.167,30.5 265.5,30.5C 335.916,102.417 406.916,173.917 478.5,245C 479.094,245.464 479.761,245.631 480.5,245.5C 480.5,248.833 480.5,252.167 480.5,255.5C 405.167,180.833 330.167,105.833 255.5,30.5 Z"/></g>
<g><path style="opacity:0.996" fill="#a405cb" d="M 265.5,30.5 C 269.371,30.185 273.038,30.5184 276.5,31.5C 343.13,99.6326 410.63,167.633 479,235.5C 479.399,235.272 479.565,234.938 479.5,234.5C 480.482,237.962 480.815,241.629 480.5,245.5C 479.761,245.631 479.094,245.464 478.5,245C 406.916,173.917 335.916,102.417 265.5,30.5 Z"/></g>
<g><path style="opacity:0.997" fill="#9f04cf" d="M 276.5,31.5 C 282.59,31.5133 288.59,32.18 294.5,33.5C 355.167,94.8333 416.167,155.833 477.5,216.5C 478.82,222.41 479.487,228.41 479.5,234.5C 479.565,234.938 479.399,235.272 479,235.5C 410.63,167.633 343.13,99.6326 276.5,31.5 Z"/></g>
<g><path style="opacity:0.997" fill="#b80cbb" d="M 220.5,32.5 C 253.167,65.5 285.833,98.5 318.5,131.5C 314.158,131.261 309.824,130.927 305.5,130.5C 273.833,98.5 242.167,66.5 210.5,34.5C 213.865,33.9604 217.198,33.2937 220.5,32.5 Z"/></g>
<g><path style="opacity:0.995" fill="#9a03d3" d="M 294.5,33.5 C 299.092,33.8816 303.425,34.8816 307.5,36.5C 362.833,92.5 418.5,148.167 474.5,203.5C 476.118,207.575 477.118,211.908 477.5,216.5C 416.167,155.833 355.167,94.8333 294.5,33.5 Z"/></g>
<g><path style="opacity:0.994" fill="#9702d5" d="M 307.5,36.5 C 312.809,37.0756 317.809,38.409 322.5,40.5C 371.164,90.8333 420.831,140.833 471.5,190.5C 472.971,194.718 473.971,199.051 474.5,203.5C 418.5,148.167 362.833,92.5 307.5,36.5 Z"/></g>
<g><path style="opacity:0.997" fill="#be0eb5" d="M 210.5,34.5 C 242.167,66.5 273.833,98.5 305.5,130.5C 297.833,130.5 290.167,130.5 282.5,130.5C 252.5,100.167 222.5,69.8333 192.5,39.5C 198.224,37.2327 204.224,35.566 210.5,34.5 Z"/></g>
<g><path style="opacity:0.997" fill="#c40fb0" d="M 192.5,39.5 C 222.5,69.8333 252.5,100.167 282.5,130.5C 276.833,130.5 271.167,130.5 265.5,130.5C 237.535,102.035 209.368,73.7013 181,45.5C 180.517,44.552 180.351,43.552 180.5,42.5C 184.397,41.0901 188.397,40.0901 192.5,39.5 Z"/></g>
<g><path style="opacity:0.993" fill="#9301d8" d="M 322.5,40.5 C 327.965,41.7664 333.299,43.433 338.5,45.5C 379.749,88.2498 421.582,130.583 464,172.5C 464.399,172.272 464.565,171.938 464.5,171.5C 467.401,177.527 469.734,183.861 471.5,190.5C 420.831,140.833 371.164,90.8333 322.5,40.5 Z"/></g>
<g><path style="opacity:0.998" fill="#ca11ab" d="M 180.5,42.5 C 180.351,43.552 180.517,44.552 181,45.5C 209.368,73.7013 237.535,102.035 265.5,130.5C 258.833,130.5 252.167,130.5 245.5,130.5C 218.833,103.167 191.833,76.1667 164.5,49.5C 169.596,46.7949 174.929,44.4615 180.5,42.5 Z"/></g>
<g><path style="opacity:0.977" fill="#9000db" d="M 338.5,45.5 C 398.189,69.8552 440.189,111.855 464.5,171.5C 464.565,171.938 464.399,172.272 464,172.5C 421.582,130.583 379.749,88.2498 338.5,45.5 Z"/></g>
<g><path style="opacity:0.997" fill="#d113a5" d="M 164.5,49.5 C 191.833,76.1667 218.833,103.167 245.5,130.5C 239.5,130.5 233.5,130.5 227.5,130.5C 203.202,105.701 178.702,81.0347 154,56.5C 153.536,55.9056 153.369,55.2389 153.5,54.5C 156.875,52.2609 160.541,50.5942 164.5,49.5 Z"/></g>
<g><path style="opacity:0.996" fill="#d715a0" d="M 153.5,54.5 C 153.369,55.2389 153.536,55.9056 154,56.5C 178.702,81.0347 203.202,105.701 227.5,130.5C 221.833,130.5 216.167,130.5 210.5,130.5C 187.833,107.167 164.833,84.1667 141.5,61.5C 145.136,58.677 149.136,56.3437 153.5,54.5 Z"/></g>
<g><path style="opacity:0.997" fill="#de189b" d="M 141.5,61.5 C 164.833,84.1667 187.833,107.167 210.5,130.5C 203.732,130.286 197.065,130.953 190.5,132.5C 170.551,110.884 149.884,89.8837 128.5,69.5C 132.323,66.0843 136.657,63.4176 141.5,61.5 Z"/></g>
<g><path style="opacity:0.995" fill="#e51a95" d="M 128.5,69.5 C 149.884,89.8837 170.551,110.884 190.5,132.5C 186.035,133.433 181.702,134.766 177.5,136.5C 158.551,115.884 138.885,95.8838 118.5,76.5C 121.446,73.6869 124.779,71.3535 128.5,69.5 Z"/></g>
<g><path style="opacity:0.997" fill="#ea1b91" d="M 118.5,76.5 C 138.885,95.8838 158.551,115.884 177.5,136.5C 173.673,138.246 170.007,140.246 166.5,142.5C 148.42,122.918 129.754,103.752 110.5,85C 109.906,84.5357 109.239,84.369 108.5,84.5C 111.52,81.4838 114.854,78.8171 118.5,76.5 Z"/></g>
<g><path style="opacity:0.997" fill="#f01d8c" d="M 108.5,84.5 C 109.239,84.369 109.906,84.5357 110.5,85C 129.754,103.752 148.42,122.918 166.5,142.5C 163.167,144.833 159.833,147.167 156.5,149.5C 137.833,130.5 119.167,111.5 100.5,92.5C 102.833,89.5 105.5,86.8333 108.5,84.5 Z"/></g>
<g><path style="opacity:0.997" fill="#f61e87" d="M 100.5,92.5 C 119.167,111.5 137.833,130.5 156.5,149.5C 154.167,152.5 151.5,155.167 148.5,157.5C 129.833,138.5 111.167,119.5 92.5,100.5C 94.1667,96.8333 96.8333,94.1667 100.5,92.5 Z"/></g>
<g><path style="opacity:0.996" fill="#fc2182" d="M 92.5,100.5 C 111.167,119.5 129.833,138.5 148.5,157.5C 145.917,160.997 143.584,164.664 141.5,168.5C 140.761,168.631 140.094,168.464 139.5,168C 120.632,148.965 101.632,130.132 82.5,111.5C 85.1231,107.209 88.4564,103.543 92.5,100.5 Z"/></g>
<g><path style="opacity:0.995" fill="#fe2c7a" d="M 82.5,111.5 C 101.632,130.132 120.632,148.965 139.5,168C 140.094,168.464 140.761,168.631 141.5,168.5C 139.308,171.55 137.642,174.883 136.5,178.5C 116.251,159.753 96.4181,140.42 77,120.5C 76.5357,119.906 76.369,119.239 76.5,118.5C 77.7997,115.568 79.7997,113.234 82.5,111.5 Z"/></g>
<g><path style="opacity:0.994" fill="#fe3973" d="M 76.5,118.5 C 76.369,119.239 76.5357,119.906 77,120.5C 96.4181,140.42 116.251,159.753 136.5,178.5C 134.614,182.837 132.947,187.17 131.5,191.5C 110.473,170.806 89.4732,150.139 68.5,129.5C 70.9341,125.618 73.6007,121.952 76.5,118.5 Z"/></g>
<g><path style="opacity:1" fill="#fefdfd" d="M 210.5,130.5 C 216.167,130.5 221.833,130.5 227.5,130.5C 233.5,130.5 239.5,130.5 245.5,130.5C 252.167,130.5 258.833,130.5 265.5,130.5C 271.167,130.5 276.833,130.5 282.5,130.5C 290.167,130.5 297.833,130.5 305.5,130.5C 309.824,130.927 314.158,131.261 318.5,131.5C 350.148,139.815 370.148,159.815 378.5,191.5C 379.984,196.033 380.65,200.7 380.5,205.5C 380.5,213.167 380.5,220.833 380.5,228.5C 380.5,234.167 380.5,239.833 380.5,245.5C 380.5,252.167 380.5,258.833 380.5,265.5C 380.5,271.5 380.5,277.5 380.5,283.5C 380.5,289.167 380.5,294.833 380.5,300.5C 380.528,305.862 380.194,311.195 379.5,316.5C 378.01,322.108 376.344,327.774 374.5,333.5C 372.784,337.26 370.784,340.927 368.5,344.5C 365.833,348.167 363.167,351.833 360.5,355.5C 357.833,357.5 355.5,359.833 353.5,362.5C 350.158,364.836 346.825,367.169 343.5,369.5C 339.313,371.76 334.979,373.76 330.5,375.5C 327.15,376.503 323.817,377.503 320.5,378.5C 315.537,379.426 310.537,380.092 305.5,380.5C 299.833,380.5 294.167,380.5 288.5,380.5C 285.833,380.5 283.167,380.5 280.5,380.5C 277.833,380.5 275.167,380.5 272.5,380.5C 269.167,380.5 265.833,380.5 262.5,380.5C 256.833,380.5 251.167,380.5 245.5,380.5C 242.5,380.5 239.5,380.5 236.5,380.5C 233.167,380.5 229.833,380.5 226.5,380.5C 223.5,380.5 220.5,380.5 217.5,380.5C 214.833,380.5 212.167,380.5 209.5,380.5C 206.5,380.5 203.5,380.5 200.5,380.5C 196.186,379.725 191.853,379.059 187.5,378.5C 182.23,376.203 176.897,373.869 171.5,371.5C 158.188,363.854 147.521,353.52 139.5,340.5C 137.221,334.94 135.221,329.274 133.5,323.5C 132.624,319.116 131.624,314.783 130.5,310.5C 130.5,307.5 130.5,304.5 130.5,301.5C 130.5,298.833 130.5,296.167 130.5,293.5C 130.5,290.5 130.5,287.5 130.5,284.5C 130.5,281.167 130.5,277.833 130.5,274.5C 130.5,271.5 130.5,268.5 130.5,265.5C 130.5,259.833 130.5,254.167 130.5,248.5C 130.5,245.167 130.5,241.833 130.5,238.5C 130.5,235.833 130.5,233.167 130.5,230.5C 130.5,225.167 130.5,219.833 130.5,214.5C 130.5,211.5 130.5,208.5 130.5,205.5C 130.833,200.833 131.167,196.167 131.5,191.5C 132.947,187.17 134.614,182.837 136.5,178.5C 137.642,174.883 139.308,171.55 141.5,168.5C 143.584,164.664 145.917,160.997 148.5,157.5C 151.5,155.167 154.167,152.5 156.5,149.5C 159.833,147.167 163.167,144.833 166.5,142.5C 170.007,140.246 173.673,138.246 177.5,136.5C 181.702,134.766 186.035,133.433 190.5,132.5C 197.065,130.953 203.732,130.286 210.5,130.5 Z"/></g>
<g><path style="opacity:0.994" fill="#fe456c" d="M 68.5,129.5 C 89.4732,150.139 110.473,170.806 131.5,191.5C 131.167,196.167 130.833,200.833 130.5,205.5C 108.368,183.868 86.368,162.035 64.5,140C 63.9056,139.536 63.2389,139.369 62.5,139.5C 64.1101,135.9 66.1101,132.566 68.5,129.5 Z"/></g>
<g><path style="opacity:0.997" fill="#fe4d67" d="M 62.5,139.5 C 63.2389,139.369 63.9056,139.536 64.5,140C 86.368,162.035 108.368,183.868 130.5,205.5C 130.5,208.5 130.5,211.5 130.5,214.5C 106.833,191.167 83.1667,167.833 59.5,144.5C 60.1103,142.566 61.1103,140.899 62.5,139.5 Z"/></g>
<g><path style="opacity:0.996" fill="#fe5861" d="M 59.5,144.5 C 83.1667,167.833 106.833,191.167 130.5,214.5C 130.5,219.833 130.5,225.167 130.5,230.5C 104.449,205.45 79.1161,179.783 54.5,153.5C 55.9287,150.304 57.5954,147.304 59.5,144.5 Z"/></g>
<g><path style="opacity:0.997" fill="#fe605c" d="M 54.5,153.5 C 79.1161,179.783 104.449,205.45 130.5,230.5C 130.5,233.167 130.5,235.833 130.5,238.5C 104.167,212.5 77.8333,186.5 51.5,160.5C 51.7073,157.759 52.7073,155.426 54.5,153.5 Z"/></g>
<g><path style="opacity:1" fill="#e41b96" d="M 198.5,159.5 C 204.979,158.509 211.646,158.176 218.5,158.5C 229.167,169.5 239.833,180.5 250.5,191.5C 245.713,191.99 241.047,192.99 236.5,194.5C 225.369,182.868 214.035,171.368 202.5,160C 201.207,159.51 199.873,159.343 198.5,159.5 Z"/></g>
<g><path style="opacity:1" fill="#de189b" d="M 218.5,158.5 C 225.5,158.5 232.5,158.5 239.5,158.5C 250.631,170.132 261.965,181.632 273.5,193C 273.272,193.399 272.938,193.565 272.5,193.5C 265.247,192.062 257.913,191.395 250.5,191.5C 239.833,180.5 229.167,169.5 218.5,158.5 Z"/></g>
<g><path style="opacity:1" fill="#d719a1" d="M 239.5,158.5 C 245.167,158.5 250.833,158.5 256.5,158.5C 288.167,190.833 320.167,222.833 352.5,254.5C 352.5,260.167 352.5,265.833 352.5,271.5C 340.868,260.369 329.368,249.035 318,237.5C 317.601,237.728 317.435,238.062 317.5,238.5C 310.167,215.833 295.167,200.833 272.5,193.5C 272.938,193.565 273.272,193.399 273.5,193C 261.965,181.632 250.631,170.132 239.5,158.5 Z"/></g>
<g><path style="opacity:1" fill="#d113a5" d="M 256.5,158.5 C 262.5,158.5 268.5,158.5 274.5,158.5C 300.167,184.833 326.167,210.833 352.5,236.5C 352.5,242.5 352.5,248.5 352.5,254.5C 320.167,222.833 288.167,190.833 256.5,158.5 Z"/></g>
<g><path style="opacity:1" fill="#c417b2" d="M 294.5,158.5 C 324.559,156.429 343.726,169.762 352,198.5C 352.499,204.491 352.666,210.491 352.5,216.5C 344.776,209.778 337.776,202.445 331.5,194.5C 335.476,185.078 332.476,179.412 322.5,177.5C 319.922,177.442 317.589,178.109 315.5,179.5C 308.167,172.833 301.167,165.833 294.5,158.5 Z"/></g>
<g><path style="opacity:1" fill="#ea1e91" d="M 198.5,159.5 C 199.873,159.343 201.207,159.51 202.5,160C 214.035,171.368 225.369,182.868 236.5,194.5C 232.338,195.776 228.338,197.443 224.5,199.5C 213.035,187.535 201.369,175.702 189.5,164C 188.552,163.517 187.552,163.351 186.5,163.5C 190.085,161.194 194.085,159.861 198.5,159.5 Z"/></g>
<g><path style="opacity:0.997" fill="#fe6759" d="M 51.5,160.5 C 77.8333,186.5 104.167,212.5 130.5,238.5C 130.5,241.833 130.5,245.167 130.5,248.5C 103.368,221.868 76.368,195.035 49.5,168C 48.9056,167.536 48.2389,167.369 47.5,167.5C 48.5957,164.968 49.9291,162.635 51.5,160.5 Z"/></g>
<g><path style="opacity:1" fill="#f0208c" d="M 186.5,163.5 C 187.552,163.351 188.552,163.517 189.5,164C 201.369,175.702 213.035,187.535 224.5,199.5C 220.857,202.135 217.19,204.801 213.5,207.5C 202.423,194.92 190.756,182.753 178.5,171C 177.552,170.517 176.552,170.351 175.5,170.5C 178.65,167.421 182.317,165.087 186.5,163.5 Z"/></g>
<g><path style="opacity:0.997" fill="#b20bbf" d="M 239.5,30.5 C 319.215,111.216 399.549,191.216 480.5,270.5C 479.979,276.852 479.313,283.185 478.5,289.5C 477.761,289.631 477.094,289.464 476.5,289C 443.965,256.299 411.299,223.799 378.5,191.5C 370.148,159.815 350.148,139.815 318.5,131.5C 285.833,98.5 253.167,65.5 220.5,32.5C 226.833,31.8333 233.167,31.1667 239.5,30.5 Z"/></g>
<g><path style="opacity:1" fill="#f62188" d="M 175.5,170.5 C 176.552,170.351 177.552,170.517 178.5,171C 190.756,182.753 202.423,194.92 213.5,207.5C 210.5,209.833 207.833,212.5 205.5,215.5C 194.423,202.92 182.756,190.753 170.5,179C 169.906,178.536 169.239,178.369 168.5,178.5C 170.117,175.216 172.45,172.549 175.5,170.5 Z"/></g>
<g><path style="opacity:0.998" fill="#fe7153" d="M 47.5,167.5 C 48.2389,167.369 48.9056,167.536 49.5,168C 76.368,195.035 103.368,221.868 130.5,248.5C 130.5,254.167 130.5,259.833 130.5,265.5C 101.5,236.833 72.5,208.167 43.5,179.5C 44.6318,175.438 45.9651,171.438 47.5,167.5 Z"/></g>
<g><path style="opacity:1" fill="#fefafd" d="M 331.5,194.5 C 321.824,201.478 315.158,199.311 311.5,188C 312.174,184.82 313.508,181.986 315.5,179.5C 317.589,178.109 319.922,177.442 322.5,177.5C 332.476,179.412 335.476,185.078 331.5,194.5 Z"/></g>
<g><path style="opacity:0.997" fill="#fe794e" d="M 43.5,179.5 C 72.5,208.167 101.5,236.833 130.5,265.5C 130.5,268.5 130.5,271.5 130.5,274.5C 101.035,245.535 71.7013,216.368 42.5,187C 41.9056,186.536 41.2389,186.369 40.5,186.5C 41.3228,184.013 42.3228,181.679 43.5,179.5 Z"/></g>
<g><path style="opacity:1" fill="#fc2382" d="M 168.5,178.5 C 169.239,178.369 169.906,178.536 170.5,179C 182.756,190.753 194.423,202.92 205.5,215.5C 202.82,219.537 200.154,223.537 197.5,227.5C 186.22,214.552 174.22,202.219 161.5,190.5C 162.828,185.835 165.161,181.835 168.5,178.5 Z"/></g>
<g><path style="opacity:0.995" fill="#fe7f4b" d="M 40.5,186.5 C 41.2389,186.369 41.9056,186.536 42.5,187C 71.7013,216.368 101.035,245.535 130.5,274.5C 130.5,277.833 130.5,281.167 130.5,284.5C 99.4499,254.45 69.1165,223.784 39.5,192.5C 39.5172,190.435 39.8505,188.435 40.5,186.5 Z"/></g>
<g><path style="opacity:0.996" fill="#fe8647" d="M 39.5,192.5 C 69.1165,223.784 99.4499,254.45 130.5,284.5C 130.5,287.5 130.5,290.5 130.5,293.5C 99.7013,263.202 69.0347,232.702 38.5,202C 37.9056,201.536 37.2389,201.369 36.5,201.5C 37.0541,198.254 38.0541,195.254 39.5,192.5 Z"/></g>
<g><path style="opacity:1" fill="#fffdfd" d="M 250.5,191.5 C 257.913,191.395 265.247,192.062 272.5,193.5C 295.167,200.833 310.167,215.833 317.5,238.5C 319.112,245.731 319.779,253.065 319.5,260.5C 318.067,269.572 315.4,278.239 311.5,286.5C 309.09,290.306 306.423,293.973 303.5,297.5C 301.167,300.5 298.5,303.167 295.5,305.5C 291.463,308.18 287.463,310.846 283.5,313.5C 279.178,314.829 274.845,316.163 270.5,317.5C 264.267,319.006 257.934,319.673 251.5,319.5C 244.998,318.917 238.664,317.583 232.5,315.5C 209.466,305.127 195.799,287.46 191.5,262.5C 191.5,258.833 191.5,255.167 191.5,251.5C 192.167,246.833 192.833,242.167 193.5,237.5C 195.346,234.46 196.679,231.127 197.5,227.5C 200.154,223.537 202.82,219.537 205.5,215.5C 207.833,212.5 210.5,209.833 213.5,207.5C 217.19,204.801 220.857,202.135 224.5,199.5C 228.338,197.443 232.338,195.776 236.5,194.5C 241.047,192.99 245.713,191.99 250.5,191.5 Z"/></g>
<g><path style="opacity:1" fill="#cb13ab" d="M 274.5,158.5 C 281.167,158.5 287.833,158.5 294.5,158.5C 301.167,165.833 308.167,172.833 315.5,179.5C 313.508,181.986 312.174,184.82 311.5,188C 315.158,199.311 321.824,201.478 331.5,194.5C 337.776,202.445 344.776,209.778 352.5,216.5C 352.5,223.167 352.5,229.833 352.5,236.5C 326.167,210.833 300.167,184.833 274.5,158.5 Z"/></g>
<g><path style="opacity:1" fill="#fe2f7b" d="M 161.5,190.5 C 174.22,202.219 186.22,214.552 197.5,227.5C 196.679,231.127 195.346,234.46 193.5,237.5C 182.448,225.446 170.781,214.113 158.5,203.5C 158.476,198.91 159.476,194.577 161.5,190.5 Z"/></g>
<g><path style="opacity:0.999" fill="#b80cbb" d="M 378.5,191.5 C 411.299,223.799 443.965,256.299 476.5,289C 477.094,289.464 477.761,289.631 478.5,289.5C 477.833,293.167 477.167,296.833 476.5,300.5C 444.5,268.833 412.5,237.167 380.5,205.5C 380.65,200.7 379.984,196.033 378.5,191.5 Z"/></g>
<g><path style="opacity:0.997" fill="#fe8c43" d="M 36.5,201.5 C 37.2389,201.369 37.9056,201.536 38.5,202C 69.0347,232.702 99.7013,263.202 130.5,293.5C 130.5,296.167 130.5,298.833 130.5,301.5C 98.8333,270.167 67.1667,238.833 35.5,207.5C 35.5172,205.435 35.8505,203.435 36.5,201.5 Z"/></g>
<g><path style="opacity:0.997" fill="#fe9240" d="M 35.5,207.5 C 67.1667,238.833 98.8333,270.167 130.5,301.5C 130.5,304.5 130.5,307.5 130.5,310.5C 98.5346,279.035 66.7013,247.368 35,215.5C 34.5172,214.552 34.3505,213.552 34.5,212.5C 34.2155,210.585 34.5489,208.919 35.5,207.5 Z"/></g>
<g><path style="opacity:1" fill="#fe3973" d="M 158.5,203.5 C 170.781,214.113 182.448,225.446 193.5,237.5C 192.833,242.167 192.167,246.833 191.5,251.5C 180.5,240.833 169.5,230.167 158.5,219.5C 158.5,214.167 158.5,208.833 158.5,203.5 Z"/></g>
<g><path style="opacity:0.996" fill="#fe993c" d="M 34.5,212.5 C 34.3505,213.552 34.5172,214.552 35,215.5C 66.7013,247.368 98.5346,279.035 130.5,310.5C 131.624,314.783 132.624,319.116 133.5,323.5C 132.761,323.631 132.094,323.464 131.5,323C 98.632,289.965 65.632,257.132 32.5,224.5C 32.5387,220.267 33.2053,216.267 34.5,212.5 Z"/></g>
<g><path style="opacity:1" fill="#e92093" d="M 291.5,268.5 C 291.649,267.448 291.483,266.448 291,265.5C 275.833,250.333 260.667,235.167 245.5,220C 244.552,219.517 243.552,219.351 242.5,219.5C 266.477,212.904 283.31,221.237 293,244.5C 295.251,252.792 294.751,260.792 291.5,268.5 Z"/></g>
<g><path style="opacity:1" fill="#f01f8c" d="M 242.5,219.5 C 243.552,219.351 244.552,219.517 245.5,220C 260.667,235.167 275.833,250.333 291,265.5C 291.483,266.448 291.649,267.448 291.5,268.5C 290.786,272.933 288.786,276.6 285.5,279.5C 268.754,261.252 251.421,243.418 233.5,226C 232.906,225.536 232.239,225.369 231.5,225.5C 234.4,222.214 238.067,220.214 242.5,219.5 Z"/></g>
<g><path style="opacity:0.999" fill="#be0eb5" d="M 380.5,205.5 C 412.5,237.167 444.5,268.833 476.5,300.5C 475.434,306.776 473.767,312.776 471.5,318.5C 441.167,288.5 410.833,258.5 380.5,228.5C 380.5,220.833 380.5,213.167 380.5,205.5 Z"/></g>
<g><path style="opacity:1" fill="#f61f87" d="M 231.5,225.5 C 232.239,225.369 232.906,225.536 233.5,226C 251.421,243.418 268.754,261.252 285.5,279.5C 283.167,282.5 280.5,285.167 277.5,287.5C 260.754,269.252 243.421,251.418 225.5,234C 224.906,233.536 224.239,233.369 223.5,233.5C 225.833,230.5 228.5,227.833 231.5,225.5 Z"/></g>
<g><path style="opacity:1" fill="#fe456c" d="M 158.5,219.5 C 169.5,230.167 180.5,240.833 191.5,251.5C 191.5,255.167 191.5,258.833 191.5,262.5C 191.657,263.873 191.49,265.207 191,266.5C 180.298,255.631 169.465,244.965 158.5,234.5C 158.5,229.5 158.5,224.5 158.5,219.5 Z"/></g>
<g><path style="opacity:0.997" fill="#c40fb0" d="M 380.5,228.5 C 410.833,258.5 441.167,288.5 471.5,318.5C 470.943,323.165 469.61,327.498 467.5,331.5C 438.527,302.861 409.527,274.194 380.5,245.5C 380.5,239.833 380.5,234.167 380.5,228.5 Z"/></g>
<g><path style="opacity:0.998" fill="#fea038" d="M 32.5,224.5 C 65.632,257.132 98.632,289.965 131.5,323C 132.094,323.464 132.761,323.631 133.5,323.5C 135.221,329.274 137.221,334.94 139.5,340.5C 103.5,304.833 67.5,269.167 31.5,233.5C 31.2641,230.391 31.5975,227.391 32.5,224.5 Z"/></g>
<g><path style="opacity:0.997" fill="#fea535" d="M 31.5,233.5 C 67.5,269.167 103.5,304.833 139.5,340.5C 147.521,353.52 158.188,363.854 171.5,371.5C 171.369,372.239 171.536,372.906 172,373.5C 207.368,408.701 242.535,444.035 277.5,479.5C 274.272,480.414 270.939,480.747 267.5,480.5C 188.833,401.167 109.833,322.167 30.5,243.5C 30.2529,240.061 30.5863,236.728 31.5,233.5 Z"/></g>
<g><path style="opacity:1" fill="#fc2382" d="M 223.5,233.5 C 224.239,233.369 224.906,233.536 225.5,234C 243.421,251.418 260.754,269.252 277.5,287.5C 273.267,290.468 268.6,292.468 263.5,293.5C 249.421,277.919 234.755,262.752 219.5,248C 218.906,247.536 218.239,247.369 217.5,247.5C 218.412,242.345 220.412,237.678 223.5,233.5 Z"/></g>
<g><path style="opacity:0.996" fill="#ca11ab" d="M 380.5,245.5 C 409.527,274.194 438.527,302.861 467.5,331.5C 466.266,336.883 464.266,341.883 461.5,346.5C 434.833,319.167 407.833,292.167 380.5,265.5C 380.5,258.833 380.5,252.167 380.5,245.5 Z"/></g>
<g><path style="opacity:1" fill="#de179b" d="M 352.5,271.5 C 352.5,278.5 352.5,285.5 352.5,292.5C 341.5,281.833 330.5,271.167 319.5,260.5C 319.779,253.065 319.112,245.731 317.5,238.5C 317.435,238.062 317.601,237.728 318,237.5C 329.368,249.035 340.868,260.369 352.5,271.5 Z"/></g>
<g><path style="opacity:0.999" fill="#feac31" d="M 30.5,243.5 C 109.833,322.167 188.833,401.167 267.5,480.5C 264.167,480.5 260.833,480.5 257.5,480.5C 182.167,404.5 106.5,328.833 30.5,253.5C 30.5,250.167 30.5,246.833 30.5,243.5 Z"/></g>
<g><path style="opacity:1" fill="#fe5a60" d="M 158.5,251.5 C 192.5,284.833 226.167,318.5 259.5,352.5C 256.833,352.5 254.167,352.5 251.5,352.5C 220.833,321.167 189.833,290.167 158.5,259.5C 158.5,256.833 158.5,254.167 158.5,251.5 Z"/></g>
<g><path style="opacity:0.999" fill="#feb12d" d="M 30.5,253.5 C 106.5,328.833 182.167,404.5 257.5,480.5C 253.167,480.5 248.833,480.5 244.5,480.5C 173.882,408.215 102.549,336.549 30.5,265.5C 30.5,261.5 30.5,257.5 30.5,253.5 Z"/></g>
<g><path style="opacity:1" fill="#fe337b" d="M 217.5,247.5 C 218.239,247.369 218.906,247.536 219.5,248C 234.755,262.752 249.421,277.919 263.5,293.5C 238.36,296.174 222.86,285.174 217,260.5C 216.232,256.08 216.398,251.747 217.5,247.5 Z"/></g>
<g><path style="opacity:1" fill="#fe605c" d="M 158.5,259.5 C 189.833,290.167 220.833,321.167 251.5,352.5C 248.833,352.5 246.167,352.5 243.5,352.5C 215.5,323.833 187.167,295.5 158.5,267.5C 158.5,264.833 158.5,262.167 158.5,259.5 Z"/></g>
<g><path style="opacity:0.998" fill="#d113a5" d="M 380.5,265.5 C 407.833,292.167 434.833,319.167 461.5,346.5C 460.579,350.299 458.912,353.632 456.5,356.5C 455.883,356.611 455.383,356.944 455,357.5C 430.299,332.632 405.465,307.965 380.5,283.5C 380.5,277.5 380.5,271.5 380.5,265.5 Z"/></g>
<g><path style="opacity:0.995" fill="#feb82a" d="M 30.5,265.5 C 102.549,336.549 173.882,408.215 244.5,480.5C 240.958,480.813 237.625,480.479 234.5,479.5C 167.167,411.5 99.5,343.833 31.5,276.5C 30.5184,273.038 30.185,269.371 30.5,265.5 Z"/></g>
<g><path style="opacity:1" fill="#fe6659" d="M 158.5,267.5 C 187.167,295.5 215.5,323.833 243.5,352.5C 240.167,352.5 236.833,352.5 233.5,352.5C 208.833,327.167 183.833,302.167 158.5,277.5C 158.5,274.167 158.5,270.833 158.5,267.5 Z"/></g>
<g><path style="opacity:1" fill="#e81d93" d="M 319.5,260.5 C 330.5,271.167 341.5,281.833 352.5,292.5C 352.666,298.176 352.499,303.843 352,309.5C 351.562,314.939 350.062,319.939 347.5,324.5C 347.649,323.448 347.483,322.448 347,321.5C 335.298,309.631 323.465,297.965 311.5,286.5C 315.4,278.239 318.067,269.572 319.5,260.5 Z"/></g>
<g><path style="opacity:0.997" fill="#febe26" d="M 31.5,276.5 C 99.5,343.833 167.167,411.5 234.5,479.5C 229.482,479.387 224.482,479.053 219.5,478.5C 219.918,477.778 220.584,477.278 221.5,477C 158.632,413.965 95.6321,351.132 32.5,288.5C 31.7279,284.548 31.3946,280.548 31.5,276.5 Z"/></g>
<g><path style="opacity:1" fill="#fe7153" d="M 158.5,277.5 C 183.833,302.167 208.833,327.167 233.5,352.5C 227.833,352.5 222.167,352.5 216.5,352.5C 197.5,332.833 178.167,313.5 158.5,294.5C 158.5,288.833 158.5,283.167 158.5,277.5 Z"/></g>
<g><path style="opacity:1" fill="#f01f8c" d="M 311.5,286.5 C 323.465,297.965 335.298,309.631 347,321.5C 347.483,322.448 347.649,323.448 347.5,324.5C 346.241,328.025 344.241,331.025 341.5,333.5C 329.368,321.869 317.368,310.035 305.5,298C 304.906,297.536 304.239,297.369 303.5,297.5C 306.423,293.973 309.09,290.306 311.5,286.5 Z"/></g>
<g><path style="opacity:0.996" fill="#d715a0" d="M 380.5,283.5 C 405.465,307.965 430.299,332.632 455,357.5C 455.383,356.944 455.883,356.611 456.5,356.5C 454.926,361.32 452.593,365.653 449.5,369.5C 426.833,346.167 403.833,323.167 380.5,300.5C 380.5,294.833 380.5,289.167 380.5,283.5 Z"/></g>
<g><path style="opacity:0.996" fill="#fec422" d="M 32.5,288.5 C 95.6321,351.132 158.632,413.965 221.5,477C 220.584,477.278 219.918,477.778 219.5,478.5C 215.407,477.492 211.407,476.492 207.5,475.5C 150.194,418.527 92.8603,361.527 35.5,304.5C 34.0736,299.279 33.0736,293.945 32.5,288.5 Z"/></g>
<g><path style="opacity:1" fill="#fe794e" d="M 158.5,294.5 C 178.167,313.5 197.5,332.833 216.5,352.5C 213.5,352.5 210.5,352.5 207.5,352.5C 191.5,335.833 175.167,319.5 158.5,303.5C 158.5,300.5 158.5,297.5 158.5,294.5 Z"/></g>
<g><path style="opacity:1" fill="#f62188" d="M 303.5,297.5 C 304.239,297.369 304.906,297.536 305.5,298C 317.368,310.035 329.368,321.869 341.5,333.5C 339.522,337.478 336.522,340.478 332.5,342.5C 321.423,329.92 309.756,317.753 297.5,306C 296.906,305.536 296.239,305.369 295.5,305.5C 298.5,303.167 301.167,300.5 303.5,297.5 Z"/></g>
<g><path style="opacity:1" fill="#fe824b" d="M 158.5,303.5 C 175.167,319.5 191.5,335.833 207.5,352.5C 177.503,349.837 161.17,333.503 158.5,303.5 Z"/></g>
<g><path style="opacity:1" fill="#fc2382" d="M 295.5,305.5 C 296.239,305.369 296.906,305.536 297.5,306C 309.756,317.753 321.423,329.92 332.5,342.5C 329.16,345.841 325.16,348.174 320.5,349.5C 308.781,336.78 296.448,324.78 283.5,313.5C 287.463,310.846 291.463,308.18 295.5,305.5 Z"/></g>
<g><path style="opacity:0.998" fill="#de179b" d="M 380.5,300.5 C 403.833,323.167 426.833,346.167 449.5,369.5C 447.582,374.343 444.916,378.677 441.5,382.5C 421.202,361.701 400.702,341.035 380,320.5C 379.51,319.207 379.343,317.873 379.5,316.5C 380.194,311.195 380.528,305.862 380.5,300.5 Z"/></g>
<g><path style="opacity:1" fill="#fe5465" d="M 158.5,234.5 C 169.465,244.965 180.298,255.631 191,266.5C 191.49,265.207 191.657,263.873 191.5,262.5C 195.799,287.46 209.466,305.127 232.5,315.5C 232.062,315.435 231.728,315.601 231.5,316C 243.702,328.035 255.702,340.202 267.5,352.5C 264.833,352.5 262.167,352.5 259.5,352.5C 226.167,318.5 192.5,284.833 158.5,251.5C 158.5,245.833 158.5,240.167 158.5,234.5 Z"/></g>
<g><path style="opacity:0.993" fill="#fecb1f" d="M 35.5,304.5 C 92.8603,361.527 150.194,418.527 207.5,475.5C 200.383,474.304 193.383,472.637 186.5,470.5C 139.084,421.583 91.0843,373.083 42.5,325C 41.9056,324.536 41.2389,324.369 40.5,324.5C 38.5209,317.917 36.8543,311.25 35.5,304.5 Z"/></g>
<g><path style="opacity:1" fill="#fe2f7a" d="M 283.5,313.5 C 296.448,324.78 308.781,336.78 320.5,349.5C 315.656,351.135 310.656,352.135 305.5,352.5C 294.14,340.473 282.473,328.806 270.5,317.5C 274.845,316.163 279.178,314.829 283.5,313.5 Z"/></g>
<g><path style="opacity:1" fill="#fe4a6a" d="M 232.5,315.5 C 238.664,317.583 244.998,318.917 251.5,319.5C 262.167,330.5 272.833,341.5 283.5,352.5C 278.167,352.5 272.833,352.5 267.5,352.5C 255.702,340.202 243.702,328.035 231.5,316C 231.728,315.601 232.062,315.435 232.5,315.5 Z"/></g>
<g><path style="opacity:1" fill="#fe3c72" d="M 270.5,317.5 C 282.473,328.806 294.14,340.473 305.5,352.5C 298.167,352.5 290.833,352.5 283.5,352.5C 272.833,341.5 262.167,330.5 251.5,319.5C 257.934,319.673 264.267,319.006 270.5,317.5 Z"/></g>
<g><path style="opacity:0.992" fill="#fed11b" d="M 40.5,324.5 C 41.2389,324.369 41.9056,324.536 42.5,325C 91.0843,373.083 139.084,421.583 186.5,470.5C 179.545,468.349 172.878,465.682 166.5,462.5C 127.784,422.784 88.4507,383.784 48.5,345.5C 45.5557,338.61 42.889,331.61 40.5,324.5 Z"/></g>
<g><path style="opacity:0.997" fill="#e51b95" d="M 379.5,316.5 C 379.343,317.873 379.51,319.207 380,320.5C 400.702,341.035 421.202,361.701 441.5,382.5C 439.646,386.221 437.313,389.554 434.5,392.5C 415.116,372.115 395.116,352.449 374.5,333.5C 376.344,327.774 378.01,322.108 379.5,316.5 Z"/></g>
<g><path style="opacity:0.997" fill="#ea1b91" d="M 374.5,333.5 C 395.116,352.449 415.116,372.115 434.5,392.5C 432.183,396.146 429.516,399.48 426.5,402.5C 408.42,382.918 389.754,363.752 370.5,345C 369.906,344.536 369.239,344.369 368.5,344.5C 370.784,340.927 372.784,337.26 374.5,333.5 Z"/></g>
<g><path style="opacity:0.997" fill="#f01d8c" d="M 368.5,344.5 C 369.239,344.369 369.906,344.536 370.5,345C 389.754,363.752 408.42,382.918 426.5,402.5C 424.167,405.5 421.5,408.167 418.5,410.5C 400.035,392.535 381.701,374.368 363.5,356C 362.552,355.517 361.552,355.351 360.5,355.5C 363.167,351.833 365.833,348.167 368.5,344.5 Z"/></g>
<g><path style="opacity:0.982" fill="#fed817" d="M 48.5,345.5 C 88.4507,383.784 127.784,422.784 166.5,462.5C 111.915,438.915 72.5812,399.915 48.5,345.5 Z"/></g>
<g><path style="opacity:0.997" fill="#f61e87" d="M 360.5,355.5 C 361.552,355.351 362.552,355.517 363.5,356C 381.701,374.368 400.035,392.535 418.5,410.5C 416.833,414.167 414.167,416.833 410.5,418.5C 391.5,399.833 372.5,381.167 353.5,362.5C 355.5,359.833 357.833,357.5 360.5,355.5 Z"/></g>
<g><path style="opacity:0.995" fill="#fc2182" d="M 353.5,362.5 C 372.5,381.167 391.5,399.833 410.5,418.5C 407.769,422.234 404.436,425.234 400.5,427.5C 380.751,409.254 361.418,390.42 342.5,371C 343.056,370.617 343.389,370.117 343.5,369.5C 346.825,367.169 350.158,364.836 353.5,362.5 Z"/></g>
<g><path style="opacity:0.994" fill="#fe2d7a" d="M 343.5,369.5 C 343.389,370.117 343.056,370.617 342.5,371C 361.418,390.42 380.751,409.254 400.5,427.5C 397.424,431.207 393.758,434.207 389.5,436.5C 370.202,416.701 350.702,397.035 331,377.5C 330.536,376.906 330.369,376.239 330.5,375.5C 334.979,373.76 339.313,371.76 343.5,369.5 Z"/></g>
<g><path style="opacity:0.996" fill="#fe9f39" d="M 171.5,371.5 C 176.897,373.869 182.23,376.203 187.5,378.5C 220.5,411.833 253.5,445.167 286.5,478.5C 283.609,479.403 280.609,479.736 277.5,479.5C 242.535,444.035 207.368,408.701 172,373.5C 171.536,372.906 171.369,372.239 171.5,371.5 Z"/></g>
<g><path style="opacity:0.997" fill="#fe3a73" d="M 330.5,375.5 C 330.369,376.239 330.536,376.906 331,377.5C 350.702,397.035 370.202,416.701 389.5,436.5C 387.469,438.522 385.135,440.189 382.5,441.5C 361.085,421.587 340.085,401.087 319.5,380C 320.056,379.617 320.389,379.117 320.5,378.5C 323.817,377.503 327.15,376.503 330.5,375.5 Z"/></g>
<g><path style="opacity:0.997" fill="#fe993c" d="M 187.5,378.5 C 191.853,379.059 196.186,379.725 200.5,380.5C 231.799,412.299 263.299,443.965 295,475.5C 295.464,476.094 295.631,476.761 295.5,477.5C 292.545,478.159 289.545,478.492 286.5,478.5C 253.5,445.167 220.5,411.833 187.5,378.5 Z"/></g>
<g><path style="opacity:0.998" fill="#fe9240" d="M 200.5,380.5 C 203.5,380.5 206.5,380.5 209.5,380.5C 240.833,412.167 272.167,443.833 303.5,475.5C 301.039,476.531 298.373,477.198 295.5,477.5C 295.631,476.761 295.464,476.094 295,475.5C 263.299,443.965 231.799,412.299 200.5,380.5 Z"/></g>
<g><path style="opacity:0.997" fill="#fe8c43" d="M 209.5,380.5 C 212.167,380.5 214.833,380.5 217.5,380.5C 248.5,411.833 279.5,443.167 310.5,474.5C 308.194,474.993 305.861,475.326 303.5,475.5C 272.167,443.833 240.833,412.167 209.5,380.5 Z"/></g>
<g><path style="opacity:0.995" fill="#fe8647" d="M 217.5,380.5 C 220.5,380.5 223.5,380.5 226.5,380.5C 256.55,411.55 287.216,441.883 318.5,471.5C 316.021,472.795 313.354,473.795 310.5,474.5C 279.5,443.167 248.5,411.833 217.5,380.5 Z"/></g>
<g><path style="opacity:0.995" fill="#fe7f4b" d="M 226.5,380.5 C 229.833,380.5 233.167,380.5 236.5,380.5C 265.833,410.5 295.5,440.167 325.5,469.5C 323.485,470.924 321.152,471.59 318.5,471.5C 287.216,441.883 256.55,411.55 226.5,380.5 Z"/></g>
<g><path style="opacity:0.997" fill="#fe794e" d="M 236.5,380.5 C 239.5,380.5 242.5,380.5 245.5,380.5C 274.194,409.86 303.194,438.86 332.5,467.5C 330.299,468.566 327.965,469.233 325.5,469.5C 295.5,440.167 265.833,410.5 236.5,380.5 Z"/></g>
<g><path style="opacity:0.998" fill="#fe6f54" d="M 245.5,380.5 C 251.167,380.5 256.833,380.5 262.5,380.5C 289.5,408.167 316.833,435.5 344.5,462.5C 340.739,464.538 336.739,466.204 332.5,467.5C 303.194,438.86 274.194,409.86 245.5,380.5 Z"/></g>
<g><path style="opacity:0.996" fill="#fe6759" d="M 262.5,380.5 C 265.833,380.5 269.167,380.5 272.5,380.5C 298.5,406.833 324.5,433.167 350.5,459.5C 348.819,461.008 346.819,462.008 344.5,462.5C 316.833,435.5 289.5,408.167 262.5,380.5 Z"/></g>
<g><path style="opacity:0.997" fill="#fe605c" d="M 272.5,380.5 C 275.167,380.5 277.833,380.5 280.5,380.5C 305.5,406.167 330.833,431.5 356.5,456.5C 355.089,458.539 353.089,459.539 350.5,459.5C 324.5,433.167 298.5,406.833 272.5,380.5 Z"/></g>
<g><path style="opacity:0.997" fill="#fe5a60" d="M 280.5,380.5 C 283.167,380.5 285.833,380.5 288.5,380.5C 312.833,405.167 337.167,429.833 361.5,454.5C 359.95,455.441 358.284,456.107 356.5,456.5C 330.833,431.5 305.5,406.167 280.5,380.5 Z"/></g>
<g><path style="opacity:0.997" fill="#fe4f66" d="M 288.5,380.5 C 294.167,380.5 299.833,380.5 305.5,380.5C 327.132,402.632 348.965,424.632 371,446.5C 371.464,447.094 371.631,447.761 371.5,448.5C 368.534,450.988 365.201,452.988 361.5,454.5C 337.167,429.833 312.833,405.167 288.5,380.5 Z"/></g>
<g><path style="opacity:0.994" fill="#fe456c" d="M 320.5,378.5 C 320.389,379.117 320.056,379.617 319.5,380C 340.085,401.087 361.085,421.587 382.5,441.5C 379.106,444.221 375.439,446.554 371.5,448.5C 371.631,447.761 371.464,447.094 371,446.5C 348.965,424.632 327.132,402.632 305.5,380.5C 310.537,380.092 315.537,379.426 320.5,378.5 Z"/></g>
</svg>
